<svg width="74" height="74" viewBox="0 0 74 74" fill="none" xmlns="http://www.w3.org/2000/svg">
<path d="M45.5402 17.0762C36.1095 17.0762 17.2187 9.43119 17.2187 0H17.0791C17.0791 7.54828 20.0775 14.7874 25.4149 20.1249C30.7522 25.4625 37.9912 28.4612 45.5395 28.4615C50.0684 28.4615 54.412 30.2606 57.6147 33.4631C60.8173 36.6656 62.6164 41.0091 62.6164 45.5381C62.6175 50.067 60.8191 54.4113 57.6172 57.6143C54.4152 60.8176 50.072 62.6175 45.5431 62.6186C41.0138 62.6193 36.6698 60.8209 33.4667 57.6189C30.2635 54.417 28.4634 50.0738 28.4626 45.5448C28.4624 41.8071 27.7262 38.1061 26.2957 34.6531C24.8653 31.2 22.7688 28.0624 20.1257 25.4196C17.4827 22.7768 14.3451 20.6804 10.8919 19.2502C7.43874 17.82 3.73764 17.0839 0 17.0841V17.2226C9.42941 17.2226 17.0745 36.1052 17.078 45.5377H17.0762C17.0762 51.1671 18.7453 56.6697 21.8726 61.3502C24.9999 66.0307 29.4449 69.6788 34.6455 71.833C39.8461 73.9875 45.5687 74.5514 51.0899 73.4531C56.6107 72.3552 61.6822 69.6446 65.6629 65.6646C69.6432 61.6843 72.3542 56.6132 73.4528 51.092C74.5514 45.5712 73.9879 39.8486 71.834 34.6478C69.6802 29.447 66.0325 25.0017 61.3524 21.874C56.6719 18.7463 51.1692 17.0767 45.5402 17.0762Z" fill="url(#paint0_linear)"/>
<defs>
<linearGradient id="paint0_linear" x1="58.978" y1="64.01" x2="15.984" y2="4.958" gradientUnits="userSpaceOnUse">
<stop offset="0.295" stop-color="#E73959"/>
<stop offset="0.384" stop-color="#E73D58"/>
<stop offset="0.477" stop-color="#E74955"/>
<stop offset="0.571" stop-color="#E95E51"/>
<stop offset="0.666" stop-color="#EA7B4B"/>
<stop offset="0.761" stop-color="#EDA044"/>
<stop offset="0.857" stop-color="#EFCE3B"/>
<stop offset="0.868" stop-color="#F0D43A"/>
</linearGradient>
</defs>
</svg>
