<svg width="24" height="24" viewBox="0 0 24 24" fill="none" xmlns="http://www.w3.org/2000/svg">
<g clip-path="url(#clip0)">
<path d="M12.3023 12.7L23.3254 12.7C23.7002 12.7 24 12.4002 24 12.0254C24 11.6506 23.7002 11.3508 23.3254 11.3508L12.3023 11.3508C11.9875 9.7868 10.6034 8.60254 8.94441 8.60254C7.28545 8.60254 5.90131 9.7868 5.58651 11.3508L0.679573 11.3508C0.304808 11.3508 0.00499521 11.6506 0.0049952 12.0254C0.00499518 12.4002 0.304807 12.7 0.679573 12.7L5.58651 12.7C5.90131 14.264 7.28545 15.4483 8.94441 15.4483C10.5984 15.4483 11.9875 14.269 12.3023 12.7ZM6.87071 12.0254C6.87071 10.8811 7.80013 9.95169 8.94441 9.95169C10.0887 9.95169 11.0181 10.8811 11.0181 12.0254C11.0181 13.1697 10.0887 14.0991 8.94441 14.0991C7.80012 14.0991 6.87071 13.1697 6.87071 12.0254Z" fill="black"/>
<path d="M17.9588 4.43972L23.3254 4.43972C23.7002 4.43972 24 4.13991 24 3.76515C24 3.39038 23.7002 3.09057 23.3254 3.09057L17.9588 3.09057C17.644 1.52654 16.2598 0.342285 14.6009 0.342285C12.9419 0.342285 11.5578 1.52654 11.243 3.09057L0.679573 3.09057C0.304808 3.09057 0.00499521 3.39038 0.0049952 3.76514C0.00499518 4.13991 0.304807 4.43972 0.679573 4.43972L11.248 4.43972C11.5628 6.00375 12.9469 7.18801 14.6059 7.18801C16.2648 7.18801 17.644 6.00375 17.9588 4.43972ZM12.5272 3.76515C12.5272 2.62086 13.4566 1.69144 14.6009 1.69144C15.7452 1.69144 16.6746 2.62086 16.6746 3.76515C16.6746 4.90943 15.7452 5.83885 14.6009 5.83885C13.4566 5.83885 12.5272 4.90443 12.5272 3.76515Z" fill="black"/>
<path d="M17.9588 20.9094L23.3254 20.9095C23.7002 20.9095 24 20.6096 24 20.2349C24 19.8601 23.7002 19.5603 23.3254 19.5603L17.9588 19.5603C17.644 17.9963 16.2598 16.812 14.6009 16.812C12.9419 16.812 11.5578 17.9963 11.243 19.5603L0.674578 19.5603C0.299812 19.5603 -1.33236e-07 19.8601 -1.49618e-07 20.2349C-1.65999e-07 20.6096 0.299812 20.9094 0.674578 20.9094L11.248 20.9094C11.5628 22.4735 12.9469 23.6577 14.6059 23.6577C16.2648 23.6577 17.644 22.4785 17.9588 20.9094ZM12.5272 20.2349C12.5272 19.0906 13.4566 18.1612 14.6009 18.1612C15.7452 18.1612 16.6746 19.0906 16.6746 20.2349C16.6746 21.3792 15.7452 22.3086 14.6009 22.3086C13.4566 22.3086 12.5272 21.3792 12.5272 20.2349Z" fill="black"/>
</g>
<defs>
<clipPath id="clip0">
<rect width="24" height="24" fill="white" transform="translate(24) rotate(90)"/>
</clipPath>
</defs>
</svg>
