<svg width="28" height="28" viewBox="0 0 28 28" fill="none" xmlns="http://www.w3.org/2000/svg">
<path d="M23.6373 23.8784C26.2502 21.2555 27.715 17.7028 27.7099 14.0006C27.7071 13.7721 27.6145 13.5538 27.4519 13.3933C27.2893 13.2326 27.07 13.1426 26.8415 13.1426C26.6129 13.1426 26.3936 13.2326 26.231 13.3933C26.0684 13.5538 25.9758 13.7721 25.973 14.0006C25.9767 17.245 24.6924 20.3584 22.4022 22.6566C21.2905 23.798 19.9615 24.7051 18.4934 25.3246C17.0254 25.944 15.4482 26.2631 13.8548 26.2631C12.2615 26.2631 10.6843 25.944 9.21628 25.3246C7.74827 24.7051 6.41918 23.798 5.30743 22.6566C3.02039 20.3561 1.73669 17.244 1.73669 14.0001C1.73669 10.7561 3.02039 7.64396 5.30743 5.34341C6.4127 4.21082 7.73182 3.30889 9.18828 2.68993C10.6447 2.07098 12.2096 1.7473 13.7921 1.73767C14.13 1.74825 14.4504 1.89043 14.685 2.13388C14.9195 2.37731 15.0497 2.70277 15.0477 3.04082C15.0458 3.37888 14.9118 3.70279 14.6744 3.94349C14.4371 4.18419 14.115 4.32262 13.777 4.32928C13.7457 4.32934 13.7144 4.33108 13.6834 4.33447C11.2757 4.41201 8.9913 5.4173 7.3077 7.14014C5.52969 8.92999 4.5318 11.3505 4.5318 13.8733C4.5318 16.3962 5.52969 18.8166 7.3077 20.6065C8.17631 21.4963 9.21411 22.2034 10.36 22.6861C11.506 23.1689 12.7369 23.4175 13.9803 23.4175C15.2237 23.4175 16.4547 23.1689 17.6006 22.6861C18.7464 22.2034 19.7843 21.4963 20.6529 20.6065C22.4337 18.8185 23.432 16.3969 23.4284 13.8733C23.4321 13.4759 23.3569 13.0815 23.2074 12.7132C23.0577 12.345 22.8367 12.01 22.5569 11.7276C22.277 11.4452 21.9441 11.2211 21.5772 11.0681C21.2103 10.9151 20.8168 10.8364 20.4192 10.8364C20.0217 10.8364 19.6281 10.9151 19.2612 11.0681C18.8943 11.2211 18.5614 11.4452 18.2816 11.7276C18.0017 12.01 17.7807 12.345 17.631 12.7132C17.4815 13.0815 17.4063 13.4759 17.41 13.8733C17.41 13.8987 17.4117 13.9225 17.4137 13.9468C17.4117 13.9712 17.41 13.9955 17.41 14.0203C17.4157 14.7133 17.2154 15.3924 16.8344 15.9714C16.4535 16.5504 15.9092 17.0031 15.2706 17.2722C14.632 17.5413 13.9277 17.6147 13.2474 17.483C12.567 17.3512 11.941 17.0204 11.449 16.5324C10.9569 16.0443 10.621 15.4211 10.4837 14.7418C10.3464 14.0625 10.414 13.3578 10.6779 12.717C10.9417 12.0761 11.39 11.5281 11.9659 11.1425C12.5417 10.7569 13.2191 10.551 13.9121 10.551C14.0271 10.5524 14.1411 10.5309 14.2477 10.4879C14.3543 10.4449 14.4513 10.3811 14.533 10.3003C14.6147 10.2196 14.6798 10.1234 14.724 10.0173C14.7683 9.91124 14.7912 9.79745 14.7912 9.68251C14.7912 9.56757 14.7683 9.45378 14.724 9.34773C14.6798 9.24166 14.6147 9.14546 14.533 9.06468C14.4513 8.9839 14.3543 8.92015 14.2477 8.87712C14.1411 8.83411 14.0271 8.81266 13.9121 8.81406C12.8837 8.81976 11.8799 9.12997 11.0275 9.70551C10.1751 10.2811 9.51229 11.0962 9.12266 12.048C8.73304 12.9999 8.63406 14.0458 8.8382 15.0539C9.04236 16.0619 9.54049 16.9868 10.2698 17.7121C10.9991 18.4373 11.9268 18.9303 12.936 19.1289C13.9451 19.3274 14.9905 19.2226 15.9401 18.8277C16.8898 18.4328 17.7013 17.7655 18.2721 16.9099C18.8429 16.0543 19.1474 15.0488 19.1474 14.0203C19.1474 13.995 19.1458 13.9712 19.1438 13.9468C19.1458 13.9225 19.1474 13.8982 19.1474 13.8733C19.144 13.7041 19.1744 13.536 19.2369 13.3786C19.2993 13.2213 19.3925 13.0779 19.5109 12.9572C19.6294 12.8363 19.7708 12.7402 19.9269 12.6747C20.0829 12.6091 20.2505 12.5754 20.4197 12.5754C20.5889 12.5754 20.7566 12.6091 20.9126 12.6747C21.0686 12.7402 21.21 12.8363 21.3285 12.9572C21.4469 13.0779 21.5402 13.2213 21.6025 13.3786C21.665 13.536 21.6954 13.7041 21.692 13.8733C21.6943 15.9394 20.8765 17.9218 19.4181 19.3852C18.7111 20.1116 17.8656 20.6889 16.9317 21.0832C15.9978 21.4774 14.9943 21.6805 13.9806 21.6805C12.9669 21.6805 11.9635 21.4774 11.0296 21.0832C10.0956 20.6889 9.25019 20.1116 8.54311 19.3852C7.08673 17.9205 6.26925 15.9389 6.26925 13.8733C6.26925 11.8078 7.08673 9.8262 8.54311 8.36149C9.25075 7.63598 10.0962 7.05921 11.0299 6.66505C11.9636 6.27087 12.9666 6.06727 13.9801 6.06618C14.058 6.06597 14.1356 6.05523 14.2107 6.03425C14.9501 5.92086 15.6214 5.53848 16.0962 4.96049C16.5709 4.38249 16.8155 3.64957 16.7831 2.90233C16.7506 2.15507 16.4433 1.44611 15.9202 0.911453C15.3972 0.376789 14.6952 0.0540666 13.9489 0.00519619C13.9177 0.00180033 13.8863 6.57883e-05 13.8548 0C13.8374 0 13.82 0 13.8025 0C13.7939 0 13.7855 0 13.7772 0C13.7688 0 13.7602 0.00101319 13.7518 0.00126666C11.9463 0.0154655 10.1615 0.38691 8.5003 1.09418C6.83905 1.80145 5.33426 2.83057 4.07265 4.12219C1.46406 6.74787 0 10.2988 0 14.0001C0 17.7012 1.46406 21.2521 4.07265 23.8778C5.34592 25.1825 6.86734 26.2195 8.54734 26.9273C10.2274 27.6353 12.032 28 13.8551 28C15.6782 28 17.4828 27.6353 19.1629 26.9273C20.8429 26.2195 22.3642 25.1825 23.6375 23.8778L23.6373 23.8784Z" fill="white"/>
</svg>
