<svg width="24" height="24" viewBox="0 0 24 24" fill="none" xmlns="http://www.w3.org/2000/svg">
<path d="M20.625 3C19.9943 3.00074 19.385 3.22853 18.9084 3.64169C18.4319 4.05486 18.1201 4.62578 18.03 5.25H13.5V6H18V20.625C18 20.7245 18.0395 20.8198 18.1098 20.8902C18.1802 20.9605 18.2755 21 18.375 21C18.4745 21 18.5698 20.9605 18.6402 20.8902C18.7105 20.8198 18.75 20.7245 18.75 20.625C18.75 20.1277 18.9475 19.6508 19.2992 19.2992C19.6508 18.9475 20.1277 18.75 20.625 18.75C21.1223 18.75 21.5992 18.9475 21.9508 19.2992C22.3025 19.6508 22.5 20.1277 22.5 20.625V20.7038C22.499 21.1798 22.3094 21.6361 21.9728 21.9728C21.6361 22.3094 21.1798 22.499 20.7038 22.5H1.5V14.7439C2.35243 16.3975 3.64246 17.7855 5.22947 18.7564C6.81648 19.7273 8.63956 20.244 10.5 20.25C10.5995 20.25 10.6948 20.2105 10.7652 20.1402C10.8355 20.0698 10.875 19.9745 10.875 19.875C10.875 19.7755 10.8355 19.6802 10.7652 19.6098C10.6948 19.5395 10.5995 19.5 10.5 19.5C9.09271 19.4973 7.70433 19.1757 6.43913 18.5595L6.672 17.691C6.90388 17.6766 7.12521 17.589 7.30408 17.4407C7.48294 17.2924 7.61011 17.0912 7.66725 16.866L8.90175 12.2625C9.18206 12.3143 9.46538 12.3483 9.75 12.3641V12.75C9.75 12.8495 9.78951 12.9448 9.85983 13.0152C9.93016 13.0855 10.0255 13.125 10.125 13.125C10.2245 13.125 10.3198 13.0855 10.3902 13.0152C10.4605 12.9448 10.5 12.8495 10.5 12.75V12.3641C10.7846 12.3485 11.0679 12.3148 11.3482 12.2633L12.5824 16.8649C12.6393 17.0902 12.7665 17.2916 12.9455 17.44C13.1245 17.5883 13.346 17.6758 13.578 17.6899L13.8878 18.8464C13.909 18.9262 13.956 18.9969 14.0215 19.0472C14.087 19.0976 14.1674 19.125 14.25 19.125C14.2828 19.125 14.3154 19.1207 14.3471 19.1122C14.3947 19.0995 14.4393 19.0775 14.4784 19.0475C14.5174 19.0175 14.5502 18.9801 14.5748 18.9375C14.5995 18.8948 14.6154 18.8477 14.6219 18.7989C14.6283 18.7501 14.625 18.7004 14.6122 18.6529L14.3029 17.499C14.4931 17.3674 14.6384 17.1806 14.7189 16.9637C14.7994 16.7468 14.8112 16.5105 14.7529 16.2866L12.2921 7.10363C12.6828 6.53315 12.8319 5.83129 12.7069 5.15127C12.5819 4.47124 12.193 3.86828 11.625 3.474V2.25C11.625 1.85218 11.467 1.47064 11.1857 1.18934C10.9044 0.908035 10.5228 0.75 10.125 0.75C9.72718 0.75 9.34564 0.908035 9.06434 1.18934C8.78304 1.47064 8.625 1.85218 8.625 2.25V3.474C8.05702 3.86828 7.66809 4.47124 7.5431 5.15127C7.41811 5.83129 7.56722 6.53315 7.95788 7.10363L5.49487 16.2881C5.43672 16.5119 5.44894 16.7482 5.52986 16.9648C5.61079 17.1814 5.75648 17.3678 5.94712 17.4986L5.75962 18.1961C3.6949 16.9881 2.17078 15.0357 1.5 12.7395V6H6.75V5.25H0.75V23.25H20.7038C21.379 23.249 22.0263 22.9802 22.5037 22.5026C22.981 22.025 23.2494 21.3775 23.25 20.7023V5.625C23.2492 4.92905 22.9724 4.26183 22.4803 3.76972C21.9882 3.27761 21.3209 3.00079 20.625 3ZM10.5 11.6025V11.25C10.5 11.1505 10.4605 11.0552 10.3902 10.9848C10.3198 10.9145 10.2245 10.875 10.125 10.875C10.0255 10.875 9.93016 10.9145 9.85983 10.9848C9.78951 11.0552 9.75 11.1505 9.75 11.25V11.6025C9.53192 11.5894 9.31471 11.5644 9.09937 11.5275L9.97988 8.24325C10.0283 8.24588 10.0759 8.25075 10.125 8.25075C10.1741 8.25075 10.2217 8.24588 10.2701 8.24325L11.1506 11.5275C10.9353 11.5644 10.7181 11.5894 10.5 11.6025ZM14.0299 16.4794C14.0548 16.5751 14.0413 16.6767 13.9923 16.7626C13.9432 16.8484 13.8625 16.9117 13.7674 16.9387H13.7651C13.6695 16.9641 13.5677 16.9506 13.482 16.9012C13.4396 16.8766 13.4025 16.8438 13.373 16.8046C13.3434 16.7655 13.322 16.7208 13.3099 16.6733L11.0066 8.09437C11.2491 8.0075 11.4774 7.88531 11.6842 7.73175L14.0299 16.4794ZM9.375 2.25C9.375 2.05109 9.45402 1.86032 9.59467 1.71967C9.73532 1.57902 9.92609 1.5 10.125 1.5C10.3239 1.5 10.5147 1.57902 10.6553 1.71967C10.796 1.86032 10.875 2.05109 10.875 2.25V3.1125C10.3859 2.965 9.86412 2.965 9.375 3.1125V2.25ZM10.125 3.75C10.4958 3.75 10.8584 3.85997 11.1667 4.06599C11.475 4.27202 11.7154 4.56486 11.8573 4.90747C11.9992 5.25008 12.0363 5.62708 11.964 5.99079C11.8916 6.35451 11.713 6.6886 11.4508 6.95083C11.1886 7.21305 10.8545 7.39163 10.4908 7.46397C10.1271 7.53632 9.75008 7.49919 9.40747 7.35727C9.06486 7.21536 8.77202 6.97504 8.56599 6.66669C8.35997 6.35835 8.25 5.99584 8.25 5.625C8.2506 5.1279 8.44833 4.65133 8.79983 4.29983C9.15133 3.94833 9.6279 3.7506 10.125 3.75ZM6.21975 16.4809L8.56575 7.73175C8.77255 7.88531 9.00089 8.0075 9.24337 8.09437L6.94238 16.6751C6.91665 16.77 6.85469 16.851 6.76981 16.9007C6.68494 16.9504 6.58396 16.9647 6.48862 16.9406H6.48525C6.38951 16.9142 6.30801 16.8511 6.25833 16.7651C6.20866 16.6791 6.1948 16.577 6.21975 16.4809ZM22.5 18.7894C22.2558 18.5395 21.9642 18.341 21.6422 18.2054C21.3202 18.0699 20.9744 18 20.625 18C20.2756 18 19.9298 18.0699 19.6078 18.2054C19.2858 18.341 18.9942 18.5395 18.75 18.7894V5.625C18.75 5.12772 18.9475 4.65081 19.2992 4.29917C19.6508 3.94754 20.1277 3.75 20.625 3.75C21.1223 3.75 21.5992 3.94754 21.9508 4.29917C22.3025 4.65081 22.5 5.12772 22.5 5.625V18.7894Z" fill="#1F70E9"/>
<path d="M10.125 6.75C10.3475 6.75 10.565 6.68402 10.75 6.5604C10.935 6.43678 11.0792 6.26108 11.1644 6.05552C11.2495 5.84995 11.2718 5.62375 11.2284 5.40552C11.185 5.18729 11.0778 4.98684 10.9205 4.8295C10.7632 4.67217 10.5627 4.56503 10.3445 4.52162C10.1262 4.47821 9.90005 4.50049 9.69448 4.58564C9.48891 4.67078 9.31321 4.81498 9.1896 4.99998C9.06598 5.18499 9 5.4025 9 5.625C9 5.92337 9.11853 6.20951 9.3295 6.42049C9.54048 6.63147 9.82663 6.75 10.125 6.75ZM10.125 5.25C10.1992 5.25 10.2717 5.27199 10.3333 5.3132C10.395 5.3544 10.4431 5.41297 10.4715 5.48149C10.4998 5.55001 10.5073 5.62541 10.4928 5.69816C10.4783 5.7709 10.4426 5.83772 10.3902 5.89016C10.3377 5.94261 10.2709 5.97832 10.1982 5.99279C10.1254 6.00726 10.05 5.99984 9.98149 5.97145C9.91297 5.94307 9.8544 5.89501 9.8132 5.83334C9.77199 5.77167 9.75 5.69917 9.75 5.625C9.75 5.52554 9.78951 5.43016 9.85983 5.35983C9.93016 5.28951 10.0255 5.25 10.125 5.25Z" fill="#1F70E9"/>
</svg>
