<svg width="32" height="32" viewBox="0 0 32 32" fill="none" xmlns="http://www.w3.org/2000/svg">
<g opacity="0.5">
<path d="M25.6 17.1521C25.6 18.4961 24.512 19.2001 23.04 19.2001H18.752C19.072 20.3521 19.2 21.4401 19.2 22.4001C19.2 26.1121 18.176 26.8801 17.28 26.8801C16.704 26.8801 16.256 26.8161 15.68 26.4961C15.488 26.3681 15.424 26.2401 15.36 26.0481L14.72 22.5921C14.016 20.8001 12.288 19.2001 10.88 18.1121V8.96012C11.392 8.96012 11.904 8.70412 12.544 8.38412C13.248 8.06413 13.952 7.68013 14.72 7.68013H20.8C22.08 7.68013 23.04 8.70413 23.04 9.60013C23.04 9.79213 23.04 9.92013 22.976 10.0481C23.744 10.3681 24.32 11.0081 24.32 11.8401C24.32 12.2241 24.256 12.5441 24.128 12.8641C24.64 13.1841 25.088 13.7601 25.088 14.4001C25.088 14.7841 24.896 15.1681 24.704 15.4881C25.216 15.8721 25.6 16.5121 25.6 17.1521ZM24.256 17.1521C24.256 16.3201 23.424 16.2561 23.296 15.8721C23.168 15.4241 23.808 15.2961 23.808 14.5281C23.808 13.7601 22.848 13.7601 22.72 13.3121C22.592 12.8001 23.04 12.6721 23.04 11.9041V11.7761C22.912 11.1361 21.952 11.0721 21.76 10.8161C21.568 10.4961 21.76 10.3681 21.76 9.66413C21.76 9.28012 21.312 9.02412 20.8 9.02412H14.72C14.208 9.02412 13.696 9.28013 13.056 9.60013C12.544 9.85612 12.032 10.1121 11.52 10.2401V16.9601C13.12 18.1761 15.168 19.9681 15.936 22.2081V22.3361L16.512 25.5361C16.768 25.6001 16.96 25.6001 17.28 25.6001C17.408 25.6001 17.92 24.8321 17.92 22.4001C17.92 21.4401 17.728 20.4161 17.408 19.2001H17.28C16.896 19.2001 16.64 18.9441 16.64 18.5601C16.64 18.1761 16.896 17.9201 17.28 17.9201H23.04C23.68 17.9201 24.256 17.6001 24.256 17.1521Z" fill="black"/>
<path d="M10.24 7.6802H6.4C5.696 7.6802 5.12 8.2562 5.12 8.9602V17.9202C5.12 18.6242 5.696 19.2002 6.4 19.2002H10.24C10.944 19.2002 11.52 18.6242 11.52 17.9202V8.9602C11.52 8.2562 10.944 7.6802 10.24 7.6802ZM6.4 17.9202V8.9602H10.24V17.9202H6.4Z" fill="black"/>
</g>
</svg>
