<svg width="24" height="24" viewBox="0 0 24 24" fill="none" xmlns="http://www.w3.org/2000/svg">
<path d="M11.9982 6.64351L11.6367 6.26508C10.7419 5.32846 9.21957 4.08984 7.5065 4.08984C5.95907 4.08984 4.67531 4.62711 3.77961 5.52115C2.88398 6.41512 2.34619 7.69591 2.34619 9.23907C2.34619 10.9258 3.00704 12.327 4.03081 13.6035C5.06418 14.8919 6.44238 16.0238 7.84925 17.1766L7.84945 17.1768L7.88736 17.2079C9.18794 18.2747 10.5754 19.4127 11.6476 20.6822C11.7294 20.7784 11.8487 20.8332 11.9723 20.8332H12.0259C12.1495 20.8332 12.2681 20.7783 12.3496 20.6824C12.3497 20.6823 12.3497 20.6822 12.3498 20.6821L12.7311 21.0055C13.7807 19.7649 15.1459 18.6452 16.4668 17.5634L11.9982 6.64351ZM11.9982 6.64351L12.3597 6.26508C13.2541 5.32887 14.7802 4.08984 16.4945 4.08984C18.0414 4.08984 19.325 4.62708 20.2206 5.52113C21.1161 6.41511 21.6539 7.69591 21.6539 9.23907C21.6539 10.9262 20.9926 12.3277 19.9685 13.6041C18.9348 14.8925 17.5564 16.0242 16.15 17.1766L11.9982 6.64351Z" stroke="#FF0000"/>
</svg>
