<svg width="15" height="15" viewBox="0 0 15 15" fill="none" xmlns="http://www.w3.org/2000/svg">
<path d="M6.25002 0H0.249977C0.111988 0 0 0.111988 0 0.249977V6.25002C0 6.38801 0.111988 6.5 0.249977 6.5H6.25002C6.38816 6.5 6.5 6.38801 6.5 6.25002V0.249977C6.50007 0.111988 6.38816 0 6.25002 0ZM6.00004 6.00004H0.500028L6.09482 6.25002L6.00004 0.500028V6.00004Z" fill="black"/>
<path d="M14.6865 0H8.6865C8.54837 0 8.43652 0.111988 8.43652 0.249977V6.25002C8.43652 6.38801 8.54837 6.5 8.6865 6.5H14.6865C14.8247 6.5 14.9365 6.38801 14.9365 6.25002V0.249977C14.9365 0.111988 14.8247 0 14.6865 0ZM14.4366 6.00004H8.93655L14.5591 6.25002L14.4366 0.500028V6.00004Z" fill="black"/>
<path d="M6.25002 8.4375H0.249977C0.111988 8.4375 0 8.54949 0 8.68748V14.6875C0 14.8255 0.111988 14.9375 0.249977 14.9375H6.25002C6.38816 14.9375 6.5 14.8255 6.5 14.6875V8.68748C6.50007 8.54949 6.38816 8.4375 6.25002 8.4375Z" fill="black"/>
<path d="M14.6865 8.4375H8.6865C8.54837 8.4375 8.43652 8.54949 8.43652 8.68748V14.6875C8.43652 14.8255 8.54837 14.9375 8.6865 14.9375H14.6865C14.8247 14.9375 14.9365 14.8255 14.9365 14.6875V8.68748C14.9365 8.54949 14.8247 8.4375 14.6865 8.4375ZM14.4366 14.4375H8.93655L14.5068 14.5069L14.4366 8.93753V14.4375Z" fill="black"/>
</svg>
