<svg width="24" height="24" viewBox="0 0 24 24" fill="none" xmlns="http://www.w3.org/2000/svg">
<path d="M11.9907 5.81641C10.3563 5.81641 8.78882 6.46467 7.63311 7.61859C6.4774 8.7725 5.82813 10.3376 5.82812 11.9694C5.82813 13.6013 6.4774 15.1664 7.63311 16.3203C8.78882 17.4742 10.3563 18.1225 11.9907 18.1225C13.6251 18.1225 15.1926 17.4742 16.3483 16.3203C17.504 15.1664 18.1533 13.6013 18.1533 11.9694C18.1533 10.3376 17.504 8.7725 16.3483 7.61859C15.1926 6.46467 13.6251 5.81641 11.9907 5.81641ZM11.9907 15.9654C10.9289 15.9654 9.91059 15.5443 9.15978 14.7946C8.40897 14.045 7.98717 13.0283 7.98717 11.9681C7.98717 10.9079 8.40897 9.8912 9.15978 9.14156C9.91059 8.39191 10.9289 7.97076 11.9907 7.97076C13.0525 7.97076 14.0708 8.39191 14.8217 9.14156C15.5725 9.8912 15.9943 10.9079 15.9943 11.9681C15.9943 13.0283 15.5725 14.045 14.8217 14.7946C14.0708 15.5443 13.0525 15.9654 11.9907 15.9654Z" fill="black"/>
<path d="M18.3971 7.02469C19.1906 7.02469 19.8338 6.38246 19.8338 5.59023C19.8338 4.79799 19.1906 4.15576 18.3971 4.15576C17.6037 4.15576 16.9604 4.79799 16.9604 5.59023C16.9604 6.38246 17.6037 7.02469 18.3971 7.02469Z" fill="black"/>
<path d="M23.3643 4.13307C23.0558 3.33757 22.5843 2.61515 21.98 2.01205C21.3758 1.40896 20.652 0.938485 19.8552 0.630738C18.9227 0.281247 17.9376 0.0922703 16.9418 0.0718562C15.6584 0.0159679 15.2519 0 11.9973 0C8.74278 0 8.32563 -1.33843e-07 7.05287 0.0718562C6.05783 0.0912265 5.07342 0.280241 4.14216 0.630738C3.34509 0.938126 2.62119 1.40848 2.01688 2.01161C1.41258 2.61475 0.94122 3.33736 0.633052 4.13307C0.282947 5.06402 0.0941109 6.04769 0.0746335 7.04192C0.0173256 8.32202 0 8.72788 0 11.9787C0 15.2282 -9.92969e-09 15.642 0.0746335 16.9155C0.0946246 17.9108 0.282541 18.8929 0.633052 19.8257C0.942085 20.6211 1.4139 21.3434 2.01835 21.9465C2.6228 22.5495 3.3466 23.0201 4.14349 23.328C5.07299 23.6915 6.0578 23.8941 7.05553 23.9268C8.33896 23.9827 8.74545 24 12 24C15.2546 24 15.6717 24 16.9445 23.9268C17.9402 23.9066 18.9252 23.7181 19.8578 23.3693C20.6545 23.0608 21.378 22.5899 21.9822 21.9867C22.5864 21.3834 23.058 20.661 23.3669 19.8656C23.7175 18.9341 23.9054 17.9521 23.9254 16.9568C23.9827 15.6766 24 15.2708 24 12.02C24 8.76913 24 8.35662 23.9254 7.08317C23.9099 6.07488 23.72 5.07684 23.3643 4.13307ZM21.741 16.817C21.7324 17.5839 21.5922 18.3436 21.3265 19.0632C21.1264 19.5807 20.82 20.0506 20.427 20.4427C20.0341 20.8348 19.5632 21.1405 19.0449 21.34C18.3322 21.6041 17.5793 21.744 16.8192 21.7538C15.5531 21.8124 15.1959 21.827 11.9494 21.827C8.70013 21.827 8.36828 21.827 7.07819 21.7538C6.31843 21.7445 5.56596 21.6045 4.85384 21.34C4.33366 21.1417 3.86095 20.8366 3.46631 20.4444C3.07167 20.0522 2.76389 19.5817 2.56286 19.0632C2.30091 18.3514 2.16079 17.6006 2.14838 16.8423C2.09107 15.5782 2.07774 15.2216 2.07774 11.98C2.07774 8.73719 2.07774 8.40585 2.14838 7.11643C2.15699 6.35 2.29719 5.59071 2.56286 4.87159C2.96935 3.82169 3.80231 2.99534 4.85384 2.59348C5.56631 2.33019 6.31856 2.19024 7.07819 2.17964C8.34562 2.12242 8.70147 2.10645 11.9494 2.10645C15.1972 2.10645 15.5304 2.10645 16.8192 2.17964C17.5794 2.18877 18.3323 2.32877 19.0449 2.59348C19.5632 2.79344 20.034 3.0994 20.4269 3.49172C20.8198 3.88404 21.1262 4.35405 21.3265 4.87159C21.5885 5.58343 21.7286 6.33421 21.741 7.09248C21.7983 8.35795 21.813 8.71324 21.813 11.9561C21.813 15.1976 21.813 15.5462 21.7557 16.8184H21.741V16.817Z" fill="black"/>
</svg>
