<svg width="32" height="32" viewBox="0 0 32 32" fill="none" xmlns="http://www.w3.org/2000/svg">
<path d="M25.6 14.8479C25.6 13.5039 24.512 12.7999 23.04 12.7999H18.752C19.072 11.6479 19.2 10.5599 19.2 9.59987C19.2 5.88787 18.176 5.11987 17.28 5.11987C16.704 5.11987 16.256 5.18387 15.68 5.50387C15.488 5.63187 15.424 5.75987 15.36 5.95187L14.72 9.40787C14.016 11.1999 12.288 12.7999 10.88 13.8879V23.0399C11.392 23.0399 11.904 23.2959 12.544 23.6159C13.248 23.9359 13.952 24.3199 14.72 24.3199H20.8C22.08 24.3199 23.04 23.2959 23.04 22.3999C23.04 22.2079 23.04 22.0799 22.976 21.9519C23.744 21.6319 24.32 20.9919 24.32 20.1599C24.32 19.7759 24.256 19.4559 24.128 19.1359C24.64 18.8159 25.088 18.2399 25.088 17.5999C25.088 17.2159 24.896 16.8319 24.704 16.5119C25.216 16.1279 25.6 15.4879 25.6 14.8479ZM24.256 14.8479C24.256 15.6799 23.424 15.7439 23.296 16.1279C23.168 16.5759 23.808 16.7039 23.808 17.4719C23.808 18.2399 22.848 18.2399 22.72 18.6879C22.592 19.1999 23.04 19.3279 23.04 20.0959V20.2239C22.912 20.8639 21.952 20.9279 21.76 21.1839C21.568 21.5039 21.76 21.6319 21.76 22.3359C21.76 22.7199 21.312 22.9759 20.8 22.9759H14.72C14.208 22.9759 13.696 22.7199 13.056 22.3999C12.544 22.1439 12.032 21.8879 11.52 21.7599V15.0399C13.12 13.8239 15.168 12.0319 15.936 9.79187V9.66387L16.512 6.46387C16.768 6.39987 16.96 6.39987 17.28 6.39987C17.408 6.39987 17.92 7.16787 17.92 9.59987C17.92 10.5599 17.728 11.5839 17.408 12.7999H17.28C16.896 12.7999 16.64 13.0559 16.64 13.4399C16.64 13.8239 16.896 14.0799 17.28 14.0799H23.04C23.68 14.0799 24.256 14.3999 24.256 14.8479Z" fill="#1F70E9"/>
<path d="M10.24 24.3198H6.4C5.696 24.3198 5.12 23.7438 5.12 23.0398V14.0798C5.12 13.3758 5.696 12.7998 6.4 12.7998H10.24C10.944 12.7998 11.52 13.3758 11.52 14.0798V23.0398C11.52 23.7438 10.944 24.3198 10.24 24.3198ZM6.4 14.0798V23.0398H10.24V14.0798H6.4Z" fill="#1F70E9"/>
</svg>
