<svg width="16" height="16" viewBox="0 0 16 16" fill="none" xmlns="http://www.w3.org/2000/svg">
<g clip-path="url(#clip0)">
<path d="M15.9958 16.0005V15.9998H15.9998V10.1318C15.9998 7.26114 15.3818 5.0498 12.0258 5.0498C10.4125 5.0498 9.32985 5.93514 8.88785 6.77447H8.84118V5.3178H5.65918V15.9998H8.97251V10.7105C8.97251 9.31781 9.23651 7.97114 10.9612 7.97114C12.6605 7.97114 12.6858 9.56047 12.6858 10.7998V16.0005H15.9958Z" fill="#344F6E"/>
<path d="M0.263672 5.31836H3.58101V16.0004H0.263672V5.31836Z" fill="#344F6E"/>
<path d="M1.92133 0C0.860667 0 0 0.860667 0 1.92133C0 2.982 0.860667 3.86067 1.92133 3.86067C2.982 3.86067 3.84267 2.982 3.84267 1.92133C3.842 0.860667 2.98133 0 1.92133 0V0Z" fill="black"/>
</g>
<defs>
<clipPath id="clip0">
<rect width="16" height="16" fill="white"/>
</clipPath>
</defs>
</svg>
