<svg width="13" height="16" viewBox="0 0 13 16" fill="none" xmlns="http://www.w3.org/2000/svg">
<path d="M6.71743 0C2.33137 0.000666676 0 2.81071 0 5.87475C0 7.29544 0.794011 9.06813 2.06536 9.63014C2.42803 9.79347 2.38003 9.59414 2.69204 8.40079C2.71671 8.30145 2.70404 8.21545 2.62404 8.12278C0.806678 6.02075 2.26937 1.69936 6.45809 1.69936C12.5202 1.69936 11.3875 10.0875 7.51277 10.0875C6.51409 10.0875 5.77008 9.30346 6.00542 8.33345C6.29076 7.1781 6.84943 5.93608 6.84943 5.10341C6.84943 3.00471 3.72272 3.31605 3.72272 6.09675C3.72272 6.9561 4.02672 7.53611 4.02672 7.53611C4.02672 7.53611 3.02071 11.6002 2.83404 12.3595C2.51804 13.6449 2.87671 15.7256 2.90804 15.9049C2.92738 16.0036 3.03804 16.0349 3.10004 15.9536C3.19938 15.8236 4.4154 14.0889 4.75607 12.8348C4.88007 12.3782 5.38874 10.5248 5.38874 10.5248C5.72408 11.1302 6.69076 11.6368 7.72078 11.6368C10.7848 11.6368 12.9995 8.94346 12.9995 5.60141C12.9889 2.39737 10.2468 0 6.71743 0V0Z" fill="#344F6E"/>
</svg>
